<?xml version="1.0" encoding="UTF-8"?>
<!DOCTYPE svg PUBLIC "-//W3C//DTD SVG 1.1//EN" "http://www.w3.org/Graphics/SVG/1.1/DTD/svg11.dtd">
<svg xmlns="http://www.w3.org/2000/svg" version="1.1" width="171px" height="139px" style="shape-rendering:geometricPrecision; text-rendering:geometricPrecision; image-rendering:optimizeQuality; fill-rule:evenodd; clip-rule:evenodd" xmlns:xlink="http://www.w3.org/1999/xlink">
<g><path style="opacity:1" fill="#68ab39" d="M 68.5,-0.5 C 76.5,-0.5 84.5,-0.5 92.5,-0.5C 92.5,-0.166667 92.5,0.166667 92.5,0.5C 91.7611,0.368989 91.0944,0.535656 90.5,1C 95.3941,2.29799 100.227,3.79799 105,5.5C 105.765,5.43007 106.265,5.09674 106.5,4.5C 107.492,4.32842 108.158,4.66175 108.5,5.5C 117.079,10.6877 125.245,17.3543 133,25.5C 142.163,41.8075 143.663,58.8075 137.5,76.5C 137.624,77.1067 137.957,77.44 138.5,77.5C 138.768,79.099 138.434,80.4324 137.5,81.5C 137.631,80.7611 137.464,80.0944 137,79.5C 133.927,83.0613 131.094,86.728 128.5,90.5C 128.5,91.1667 128.167,91.5 127.5,91.5C 123.766,94.2311 120.766,97.5644 118.5,101.5C 118.5,102.167 118.167,102.5 117.5,102.5C 113.102,105.895 109.436,109.895 106.5,114.5C 106.167,115.167 105.833,115.833 105.5,116.5C 99.1667,120.833 93.8333,126.167 89.5,132.5C 89.5,133.167 89.1667,133.5 88.5,133.5C 86.2537,133.936 84.0871,134.603 82,135.5C 79.8526,134.887 77.686,134.221 75.5,133.5C 65.1283,121.798 54.4616,110.464 43.5,99.5C 40.0969,97.1002 37.4302,94.1002 35.5,90.5C 33.2411,87.0622 30.7411,83.7289 28,80.5C 26.0506,73.9176 24.5506,67.2509 23.5,60.5C 23.5,55.5 23.5,50.5 23.5,45.5C 25.7674,32.0441 32.434,21.2107 43.5,13C 49.5373,9.86315 54.8706,6.69649 59.5,3.5C 62.5,2.16667 65.5,0.833333 68.5,-0.5 Z M 41.5,48.5 C 58.9127,48.5822 68.246,57.2489 69.5,74.5C 61.2873,75.1496 53.2873,74.3163 45.5,72C 40.3806,68.3835 37.0473,63.5502 35.5,57.5C 36.7663,53.9547 38.7663,50.9547 41.5,48.5 Z M 112.5,48.5 C 125.992,47.1425 130.825,52.8092 127,65.5C 118.096,73.8522 107.596,76.8522 95.5,74.5C 96.6537,62.8538 102.32,54.1871 112.5,48.5 Z"/></g>
<g><path style="opacity:0.157" fill="#92c56d" d="M 92.5,0.5 C 97.5395,0.85038 102.206,2.18371 106.5,4.5C 106.265,5.09674 105.765,5.43007 105,5.5C 100.227,3.79799 95.3941,2.29799 90.5,1C 91.0944,0.535656 91.7611,0.368989 92.5,0.5 Z"/></g>
<g><path style="opacity:0.443" fill="#95c672" d="M 59.5,3.5 C 54.8706,6.69649 49.5373,9.86315 43.5,13C 32.434,21.2107 25.7674,32.0441 23.5,45.5C 23.1667,45.5 22.8333,45.5 22.5,45.5C 26.2899,24.0397 38.6232,10.0397 59.5,3.5 Z"/></g>
<g><path style="opacity:0.129" fill="#8ebe6c" d="M 108.5,5.5 C 139.735,20.5165 149.735,44.5165 138.5,77.5C 137.957,77.44 137.624,77.1067 137.5,76.5C 143.663,58.8075 142.163,41.8075 133,25.5C 125.245,17.3543 117.079,10.6877 108.5,5.5 Z"/></g>
<g><path style="opacity:1" fill="#a4ce86" d="M 22.5,45.5 C 22.8333,45.5 23.1667,45.5 23.5,45.5C 23.5,50.5 23.5,55.5 23.5,60.5C 23.1667,60.5 22.8333,60.5 22.5,60.5C 21.2001,55.5999 21.2001,50.5999 22.5,45.5 Z"/></g>
<g><path style="opacity:0.459" fill="#94c86f" d="M 22.5,60.5 C 22.8333,60.5 23.1667,60.5 23.5,60.5C 24.5506,67.2509 26.0506,73.9176 28,80.5C 30.7411,83.7289 33.2411,87.0622 35.5,90.5C 31.4509,87.616 28.2843,83.9494 26,79.5C 24.0319,73.2983 22.8652,66.965 22.5,60.5 Z"/></g>
<g><path style="opacity:0.306" fill="#90c26c" d="M 137.5,81.5 C 134.833,84.8333 131.833,87.8333 128.5,90.5C 131.094,86.728 133.927,83.0613 137,79.5C 137.464,80.0944 137.631,80.7611 137.5,81.5 Z"/></g>
<g><path style="opacity:0.373" fill="#92c36f" d="M 127.5,91.5 C 125.234,95.4356 122.234,98.7689 118.5,101.5C 120.766,97.5644 123.766,94.2311 127.5,91.5 Z"/></g>
<g><path style="opacity:0.384" fill="#96c673" d="M 117.5,102.5 C 114.564,107.105 110.898,111.105 106.5,114.5C 109.436,109.895 113.102,105.895 117.5,102.5 Z"/></g>
<g><path style="opacity:1" fill="#8cc268" d="M 43.5,99.5 C 54.4616,110.464 65.1283,121.798 75.5,133.5C 77.686,134.221 79.8526,134.887 82,135.5C 84.0871,134.603 86.2537,133.936 88.5,133.5C 86.3929,135.652 83.7262,136.652 80.5,136.5C 78.3659,136.485 76.3659,135.985 74.5,135C 63.9578,123.295 53.6244,111.462 43.5,99.5 Z"/></g>
<g><path style="opacity:0.392" fill="#98c775" d="M 105.5,116.5 C 100.5,122.167 95.1667,127.5 89.5,132.5C 93.8333,126.167 99.1667,120.833 105.5,116.5 Z"/></g>
</svg>
